<svg width="64" height="64" viewBox="0 0 64 64" fill="none" xmlns="http://www.w3.org/2000/svg">
<rect width="64" height="64" rx="16" fill="url(#paint0_linear_16_6)"/>
<path d="M42 44C43.0609 44 44.0783 43.5786 44.8284 42.8284C45.5786 42.0783 46 41.0609 46 40V34C46 32.9391 45.5786 31.9217 44.8284 31.1716C44.0783 30.4214 43.0609 30 42 30H22C20.9391 30 19.9217 30.4214 19.1716 31.1716C18.4214 31.9217 18 32.9391 18 34V40C18 41.0609 18.4214 42.0783 19.1716 42.8284C19.9217 43.5786 20.9391 44 22 44H42ZM18 29.528V24C18 22.9391 18.4214 21.9217 19.1716 21.1716C19.9217 20.4214 20.9391 20 22 20H29.172C29.9672 20.0003 30.7297 20.3164 31.292 20.8787L34.1213 23.7067C34.308 23.8947 34.5627 24 34.828 24H42C43.0609 24 44.0783 24.4214 44.8284 25.1716C45.5786 25.9217 46 26.9391 46 28V29.528C44.9011 28.5422 43.4763 27.9979 42 28H22C20.5237 27.9979 19.0989 28.5422 18 29.528Z" fill="white"/>
<defs>
<linearGradient id="paint0_linear_16_6" x1="9" y1="8" x2="68.5" y2="72" gradientUnits="userSpaceOnUse">
<stop stop-color="#5FFF53"/>
<stop offset="1" stop-color="#13A961"/>
</linearGradient>
</defs>
</svg>
