<svg width="168" height="211" viewBox="0 0 168 211" fill="none" xmlns="http://www.w3.org/2000/svg">
<path d="M30 115.25C44.9665 111.87 53.0688 111.539 67 113.75M30 98.25C44.9665 94.8697 53.0688 94.5393 67 96.75M30.5 132.25C45.4665 128.87 53.5688 128.539 67.5 130.75M30.5 149.25C45.4665 145.87 53.5688 145.539 67.5 147.75M30 166.25C44.9665 162.87 53.0688 162.539 67 164.75M97 88.25C107.329 82.0149 113.541 79.1242 125.5 75.25M97 105.25C107.329 99.0149 113.541 96.1242 125.5 92.25M97 122.25C107.329 116.015 113.541 113.124 125.5 109.25M97 139.25C107.329 133.015 113.541 130.124 125.5 126.25M97 155.75C107.329 149.515 113.541 146.624 125.5 142.75" stroke="black" stroke-width="4" stroke-linecap="round" stroke-linejoin="round"/>
<path d="M91 68.25C107.212 58.418 119.533 51.7859 138.5 45.25V160.25C118.18 166.981 106.485 172.735 84 185.25V71.75C62.29 64.3117 45.8641 66.0077 13.5 72.75V196.25C47.1632 190.319 63.5968 189.468 84 197.25C108.071 188.993 121.712 189.791 154.5 197.25V72.75L146.5 71.25M2 84.25V208.75H166V84.25" stroke="black" stroke-width="4" stroke-linecap="round" stroke-linejoin="round"/>
<ellipse cx="37" cy="4.25" rx="5" ry="4" fill="black"/>
<path d="M51 4.25C51 4.25 82.1693 5.59824 85.7676 26.0431C89.3659 46.488 49.911 47.377 55.0903 64.8621C60.2696 82.3471 81.6773 83.25 81.6773 83.25" stroke="black" stroke-width="4" stroke-linecap="round" stroke-dasharray="8 8"/>
</svg>
