<svg width="64" height="64" viewBox="0 0 64 64" fill="none" xmlns="http://www.w3.org/2000/svg">
<rect width="64" height="64" rx="16" fill="url(#paint0_linear_16_8)"/>
<path d="M42.8976 28C43.4242 28 43.9301 28.076 44.4057 28.216V28C44.4057 26.9391 43.97 25.9217 43.1944 25.1716C42.4189 24.4214 41.367 24 40.2702 24H34.9231C34.649 23.9998 34.3862 23.8943 34.1925 23.7067L31.2687 20.88C30.9808 20.6012 30.6389 20.38 30.2626 20.229C29.8863 20.078 29.4829 20.0002 29.0755 20H23.7284C22.6316 20 21.5797 20.4214 20.8042 21.1716C20.0287 21.9217 19.593 22.9391 19.593 24V28.216C20.0819 28.0724 20.5901 27.9996 21.101 28H42.8976ZM21.101 30C20.6567 30.0001 20.2176 30.0925 19.8135 30.271C19.4093 30.4494 19.0495 30.7098 18.7584 31.0345C18.4673 31.3592 18.2517 31.7405 18.1262 32.1528C18.0008 32.5651 17.9683 32.9986 18.0311 33.424L19.2125 41.424C19.318 42.1388 19.6865 42.7929 20.2505 43.2661C20.8144 43.7393 21.5358 43.9999 22.2824 44H41.7176C42.4642 43.9999 43.1856 43.7393 43.7495 43.2661C44.3135 42.7929 44.682 42.1388 44.7875 41.424L45.9689 33.424C46.0317 32.9986 45.9992 32.5651 45.8738 32.1528C45.7483 31.7405 45.5327 31.3592 45.2416 31.0345C44.9505 30.7098 44.5907 30.4494 44.1865 30.271C43.7824 30.0925 43.3433 30.0001 42.899 30H21.101Z" fill="white"/>
<defs>
<linearGradient id="paint0_linear_16_8" x1="9" y1="8" x2="68.5" y2="72" gradientUnits="userSpaceOnUse">
<stop stop-color="#53B5FF"/>
<stop offset="1" stop-color="#1327A9"/>
</linearGradient>
</defs>
</svg>
