<svg width="36" height="36" viewBox="0 0 36 36" fill="none" xmlns="http://www.w3.org/2000/svg">
<rect width="36" height="36" rx="18" fill="#2B7FFF"/>
<path d="M18.75 24.82C19.9994 23.958 21.482 23.4975 23 23.5C23.71 23.5 24.396 23.598 25.046 23.782C25.1576 23.8135 25.2749 23.8188 25.3888 23.7973C25.5028 23.7759 25.6102 23.7283 25.7026 23.6583C25.795 23.5884 25.87 23.4979 25.9216 23.3941C25.9732 23.2903 26 23.1759 26 23.06V12.06C25.9998 11.8968 25.9464 11.7381 25.8479 11.608C25.7494 11.4778 25.6111 11.3834 25.454 11.339C24.6555 11.1135 23.8297 10.9994 23 11C21.517 10.998 20.0567 11.3639 18.75 12.065V24.82ZM17.25 12.065C15.9433 11.3639 14.483 10.998 13 11C12.15 11 11.327 11.118 10.546 11.339C10.3889 11.3834 10.2506 11.4778 10.1521 11.608C10.0536 11.7381 10.0002 11.8968 10 12.06V23.06C10.0001 23.1759 10.0271 23.2901 10.0787 23.3938C10.1304 23.4975 10.2054 23.5878 10.2978 23.6576C10.3902 23.7275 10.4976 23.775 10.6114 23.7964C10.7253 23.8178 10.8425 23.8125 10.954 23.781C11.6198 23.5935 12.3083 23.499 13 23.5C14.579 23.5 16.042 23.987 17.25 24.82V12.065Z" fill="white"/>
</svg>
