<svg width="147" height="35" viewBox="0 0 147 35" fill="none" xmlns="http://www.w3.org/2000/svg">
<g clip-path="url(#clip0_38_341)">
<path d="M16.145 0L16.0483 0.0948509H15.3716L15.2749 0.189702H14.6949L14.5982 0.284553H14.1148L14.0181 0.379404H13.7281L13.6314 0.474255H13.3414L13.2447 0.569106H12.9547L12.858 0.663957H12.568L12.4713 0.758808H12.2779L12.1813 0.853659H11.9879L11.8912 0.94851H11.6979L11.6012 1.04336H11.4079L11.3112 1.13821H11.2145L11.1178 1.23306H10.9245L10.8278 1.32791H10.7311L10.6344 1.42276H10.4411L10.3444 1.51762H10.2477L10.1511 1.61247H10.0544L9.9577 1.70732H9.86103L9.76435 1.80217H9.66767L9.571 1.89702H9.47432L9.37764 1.99187H9.28097L9.18429 2.08672H9.08761L8.89426 2.27642H8.79758L8.70091 2.37127H8.60423L8.41088 2.56098H8.3142L8.21752 2.65583H8.12085L7.83082 2.94038H7.73414L7.54079 3.13008H7.44411L7.25076 3.31978H7.15408L6.76737 3.69919H6.67069L6.18731 4.17344H6.09063L4.35045 5.88076V5.97561L3.86707 6.44986V6.54472L3.57704 6.82927V6.92412L3.28701 7.20867V7.30352L3.09366 7.49323V7.58808L2.9003 7.77778V7.87263L2.70695 8.06233V8.15718L2.5136 8.34688V8.44173L2.41692 8.53659V8.63144L2.32024 8.72629V8.82114L2.12689 9.01084V9.10569L2.03021 9.20054V9.29539L1.93353 9.39024V9.4851L1.83686 9.57995V9.6748L1.74018 9.76965V9.8645L1.6435 9.95935V10.0542L1.54683 10.1491V10.2439L1.45015 10.3388V10.5285L1.35347 10.6233V10.7182L1.2568 10.813V10.9079L1.16012 11.0027V11.1924L1.06344 11.2873V11.477L0.966767 11.5718V11.6667L0.870091 11.7615V12.0461L0.773414 12.1409V12.3306L0.676737 12.4255V12.6152L0.58006 12.71V12.9946L0.483384 13.0894V13.374L0.386707 13.4688V13.8482L0.29003 13.9431V14.3225L0.193353 14.4173V14.8916L0.0966767 14.9865V15.5556L0 15.6504V19.065L0.0966767 19.1599V19.9187L0.193353 20.0135V20.4878L0.29003 20.5827V20.9621L0.386707 21.0569V21.4363L0.483384 21.5312V21.8157L0.58006 21.9106V22.1003L0.676737 22.1951V22.4797L0.773414 22.5745V22.7642L0.870091 22.8591V23.0488L0.966767 23.1436V23.3333L1.06344 23.4282V23.6179L1.16012 23.7127V23.9024L1.2568 23.9973V24.0921L1.35347 24.187V24.3767L1.45015 24.4715V24.5664L1.54683 24.6612V24.7561L1.6435 24.8509V24.9458L1.74018 25.0407V25.1355L1.83686 25.2304V25.3252L1.93353 25.4201V25.5149L2.03021 25.6098V25.7046L2.12689 25.7995V25.8943L2.22356 25.9892V26.084L2.32024 26.1789V26.2737L2.41692 26.3686V26.4634L2.61027 26.6531V26.748L2.80363 26.9377V27.0325L2.9003 27.1274V27.2222L3.19033 27.5068V27.6016L3.38369 27.7913V27.8862L3.67372 28.1707V28.2656L4.06042 28.645V28.7398L4.73716 29.4038V29.4986L5.60725 30.3523H5.70393L6.38066 31.0163H6.47734L6.86405 31.3957H6.96072L7.25076 31.6802H7.34743L7.63746 31.9648H7.73414L7.92749 32.1545H8.02417L8.21752 32.3442H8.3142L8.41088 32.439H8.50755L8.70091 32.6287H8.79758L8.89426 32.7236H8.99094L9.18429 32.9133H9.28097L9.37764 33.0081H9.47432L9.571 33.103H9.66767L9.76435 33.1978H9.86103L9.9577 33.2927H10.0544L10.1511 33.3875H10.2477L10.3444 33.4824H10.5378L10.6344 33.5772H10.7311L10.8278 33.6721H10.9245L11.0211 33.7669H11.2145L11.3112 33.8618H11.4079L11.5045 33.9566H11.6979L11.7946 34.0515H11.9879L12.0846 34.1463H12.2779L12.3746 34.2412H12.568L12.6647 34.336H12.9547L13.0514 34.4309H13.3414L13.4381 34.5257H13.7281L13.8248 34.6206H14.2115L14.3082 34.7154H14.7915L14.8882 34.8103H15.4683L15.565 34.9052H16.5317L16.6284 35H18.852L18.9486 34.9052H19.8187L19.9154 34.8103H20.4955L20.5921 34.7154H21.0755L21.1722 34.6206H21.4622L21.5589 34.5257H21.9456L22.0423 34.4309H22.3323L22.429 34.336H22.6224L22.719 34.2412H22.9124L23.0091 34.1463H23.2024L23.2991 34.0515H23.4924L23.5891 33.9566H23.7825L23.8792 33.8618H24.0725L24.1692 33.7669H24.2659L24.3625 33.6721H24.5559L24.6526 33.5772H24.7492L24.8459 33.4824H24.9426L25.0393 33.3875H25.2326L25.3293 33.2927H25.426L25.5227 33.1978H25.6193L25.716 33.103H25.8127L25.9094 33.0081H26.006L26.1994 32.8184H26.2961L26.3927 32.7236H26.4894L26.5861 32.6287H26.6828L26.8761 32.439H26.9728L27.0695 32.3442H27.1662L27.3595 32.1545H27.4562L27.7462 31.8699H27.8429L28.0363 31.6802H28.1329L28.423 31.3957H28.5196L28.8097 31.1111H28.9063L29.3897 30.6369H29.4864L31.2266 28.9295V28.8347L31.71 28.3604V28.2656L32 27.981V27.8862H31.9033L31.6133 27.6016H31.5166L31.2266 27.3171H31.1299L30.8399 27.0325H30.7432L30.3565 26.6531H30.2598L29.9698 26.3686H29.8731L29.4864 25.9892H29.3897L29.0997 25.7046H29.003L28.8097 25.5149V25.6098L28.423 25.9892V26.084L26.5861 27.8862H26.4894L26.1027 28.2656H26.006L25.716 28.5501H25.6193L25.426 28.7398H25.3293L25.136 28.9295H25.0393L24.8459 29.1192H24.7492L24.6526 29.2141H24.5559L24.4592 29.3089H24.3625L24.2659 29.4038H24.1692L24.0725 29.4986H23.9758L23.8792 29.5935H23.7825L23.6858 29.6883H23.5891L23.4924 29.7832H23.3958L23.2991 29.878H23.2024L23.1057 29.9729H23.0091L22.9124 30.0678H22.719L22.6224 30.1626H22.5257L22.429 30.2575H22.2356L22.139 30.3523H21.9456L21.8489 30.4472H21.6556L21.5589 30.542H21.2689L21.1722 30.6369H20.8822L20.7855 30.7317H20.4955L20.3988 30.8266H19.9154L19.8187 30.9214H19.142L19.0453 31.0163H16.5317L16.435 30.9214H15.7583L15.6616 30.8266H15.1782L15.0816 30.7317H14.8882L14.7915 30.6369L19.9154 25.6098V25.5149L21.4622 23.9973H21.5589L21.7523 23.8076L21.8489 23.9024H22.139L22.2356 23.9973H22.9124L23.0091 23.9024H23.2991L23.3958 23.8076H23.4924L23.5891 23.7127H23.6858L23.8792 23.523H23.9758L24.2659 23.2385V23.1436L24.4592 22.9539V22.8591L24.5559 22.7642V22.5745L24.6526 22.4797V22.1003L24.7492 22.0054V21.9106L24.6526 21.8157V21.3415L24.5559 21.2466V21.1518L24.4592 21.0569V20.9621L24.3625 20.8672V20.7724L24.1692 20.5827V20.4878L23.9758 20.2981H23.8792L23.6858 20.1084H23.5891L23.4924 20.0135H23.3958L23.2991 19.9187H23.1057L23.0091 19.8238H22.0423L21.9456 19.9187H21.7523L21.6556 20.0135H21.5589L21.4622 20.1084H21.3656L20.6888 20.7724V20.8672L20.5921 20.9621V21.1518L20.4955 21.2466V21.4363L20.3988 21.5312V22.1003L20.4955 22.1951V22.5745L20.5921 22.6694L14.5015 28.645V28.7398L13.0514 30.1626H12.858L12.7613 30.0678H12.6647L12.568 29.9729H12.4713L12.3746 29.878H12.1813L12.0846 29.7832H11.9879L11.8912 29.6883H11.7946L11.6979 29.5935H11.6012L11.5045 29.4986H11.4079L11.3112 29.4038H11.2145L11.1178 29.3089H11.0211L10.8278 29.1192H10.7311L10.6344 29.0244H10.5378L10.3444 28.8347H10.2477L10.0544 28.645H9.9577L9.66767 28.3604H9.571L9.28097 28.0759H9.18429L8.60423 27.5068H8.50755L8.41088 27.4119V27.3171L19.5287 16.4092H19.7221L19.8187 16.5041H20.3021L20.3988 16.5989H20.5921L20.6888 16.5041H21.1722L21.2689 16.4092H21.3656L21.4622 16.3144H21.5589L21.6556 16.2195H21.7523L22.2356 15.7453V15.6504L22.3323 15.5556V15.4607L22.429 15.3659V15.271L22.5257 15.1762V14.9865L22.6224 14.8916V14.1328L22.5257 14.0379V13.8482L22.429 13.7534V13.5637L22.2356 13.374V13.2791L21.6556 12.71H21.5589L21.4622 12.6152H21.3656L21.2689 12.5203H20.9789L20.8822 12.4255H20.1088L20.0121 12.5203H19.8187L19.7221 12.6152H19.5287L19.3353 12.8049H19.2387L18.6586 13.374V13.4688L18.5619 13.5637V13.6585L18.4653 13.7534V13.9431L18.3686 14.0379V14.7967L18.4653 14.8916V15.1762L7.25076 26.1789L6.86405 25.7995V25.7046L6.57402 25.4201V25.3252L6.28399 25.0407V24.9458L6.18731 24.8509V24.7561L5.99396 24.5664V24.4715L5.8006 24.2818V24.187L5.70393 24.0921V23.9973L5.60725 23.9024V23.8076L5.51057 23.7127V23.6179L5.4139 23.523V23.4282L5.31722 23.3333V23.2385L5.22054 23.1436V23.0488L5.12387 22.9539V22.8591L5.02719 22.7642V22.5745L4.93051 22.4797V22.3848L4.83384 22.29V22.1003L4.73716 22.0054V21.8157L4.64048 21.7209V21.5312L4.54381 21.4363L12.4713 13.6585H12.568L12.7613 13.4688L12.858 13.5637H13.2447L13.3414 13.6585H13.7281L13.8248 13.5637H14.2115L14.3082 13.4688H14.4048L14.5015 13.374H14.5982L14.6949 13.2791H14.7915L15.2749 12.8049V12.71L15.4683 12.5203V12.3306L15.565 12.2358V12.0461L15.6616 11.9512V11.0976L15.565 11.0027V10.813L15.4683 10.7182V10.6233L15.3716 10.5285V10.4336L14.6949 9.76965H14.5982L14.5015 9.6748H14.4048L14.3082 9.57995H14.1148L14.0181 9.4851H13.0514L12.9547 9.57995H12.7613L12.6647 9.6748H12.568L12.4713 9.76965H12.3746L12.1813 9.95935H12.0846L11.7946 10.2439V10.3388L11.6979 10.4336V10.5285L11.6012 10.6233V10.7182L11.5045 10.813V11.0027L11.4079 11.0976V12.0461L11.5045 12.1409V12.3306L4.1571 19.5393L4.06042 19.4444V19.3496L4.1571 19.2547V19.065L4.06042 18.9702V18.4011L3.96375 18.3062V16.2195L4.06042 16.1247V15.4607L4.1571 15.3659V14.7967L4.25378 14.7019V14.3225L4.35045 14.2276V13.9431L4.44713 13.8482V13.6585L4.54381 13.5637V13.2791L4.64048 13.1843V12.9946L4.73716 12.8997V12.8049L4.83384 12.71V12.5203L4.93051 12.4255V12.3306L5.02719 12.2358V12.0461L5.12387 11.9512V11.8564L5.22054 11.7615V11.6667L5.31722 11.5718V11.477L5.4139 11.3821V11.2873L5.51057 11.1924V11.0976L5.60725 11.0027V10.9079L5.70393 10.813V10.7182L5.89728 10.5285V10.4336L5.99396 10.3388V10.2439L6.18731 10.0542V9.95935L6.38066 9.76965V9.6748L6.67069 9.39024V9.29539L6.96072 9.01084V8.91599L7.83082 8.06233V7.96748L8.02417 7.77778H8.12085L8.89426 7.01897H8.99094L9.37764 6.63957H9.47432L9.76435 6.35501H9.86103L10.0544 6.16531H10.1511L10.2477 6.07046H10.3444L10.5378 5.88076H10.6344L10.7311 5.78591H10.8278L11.0211 5.59621H11.1178L11.2145 5.50136H11.3112L11.4079 5.4065H11.5045L11.6012 5.31165H11.6979L11.7946 5.2168H11.8912L11.9879 5.12195H12.1813L12.2779 5.0271H12.3746L12.4713 4.93225H12.6647L12.7613 4.8374H12.858L12.9547 4.74255H13.148L13.2447 4.6477H13.5347L13.6314 4.55285H13.8248L13.9214 4.45799H14.2115L14.3082 4.36314H14.5982L14.6949 4.26829H15.0816L15.1782 4.17344H15.7583L15.855 4.07859H16.8218L16.9184 3.98374H18.3686L18.4653 4.07859H19.3353L19.432 4.17344H20.0121L20.1088 4.26829H20.4955L20.5921 4.36314H20.8822L20.9789 4.45799H21.2689L21.3656 4.55285H21.6556L21.7523 4.6477H21.9456L22.0423 4.74255H22.2356L22.3323 4.8374H22.5257L22.6224 4.93225H22.719L22.8157 5.0271H23.0091L23.1057 5.12195H23.2024L23.2991 5.2168H23.3958L23.4924 5.31165H23.5891L23.6858 5.4065H23.7825L23.8792 5.50136H23.9758L24.0725 5.59621H24.1692L24.2659 5.69106H24.3625L24.4592 5.78591H24.5559L24.7492 5.97561H24.8459L24.9426 6.07046H25.0393L25.2326 6.26016H25.3293L25.5227 6.44986H25.6193L25.9094 6.73442H26.006L26.3927 7.11382H26.4894L27.0695 7.68293H27.1662L28.2296 8.72629V8.82114L28.713 9.29539H28.9063L29.0997 9.10569H29.1964L29.4864 8.82114H29.5831L29.8731 8.53659H29.9698L30.2598 8.25203H30.3565L30.6465 7.96748H30.7432L31.1299 7.58808H31.2266L31.5166 7.30352H31.6133L32 6.92412V6.82927L31.4199 6.26016V6.16531L29.6798 4.45799H29.5831L29.0997 3.98374H29.003L28.6163 3.60434H28.5196L28.1329 3.22493H28.0363L27.8429 3.03523H27.7462L27.5529 2.84553H27.4562L27.2628 2.65583H27.1662L27.0695 2.56098H26.9728L26.7795 2.37127H26.6828L26.5861 2.27642H26.4894L26.3927 2.18157H26.2961L26.1994 2.08672H26.1027L26.006 1.99187H25.9094L25.8127 1.89702H25.716L25.6193 1.80217H25.5227L25.426 1.70732H25.3293L25.2326 1.61247H25.136L25.0393 1.51762H24.9426L24.8459 1.42276H24.7492L24.6526 1.32791H24.4592L24.3625 1.23306H24.2659L24.1692 1.13821H23.9758L23.8792 1.04336H23.6858L23.5891 0.94851H23.3958L23.2991 0.853659H23.1057L23.0091 0.758808H22.8157L22.719 0.663957H22.429L22.3323 0.569106H22.0423L21.9456 0.474255H21.6556L21.5589 0.379404H21.1722L21.0755 0.284553H20.6888L20.5921 0.189702H20.0121L19.9154 0.0948509H19.0453L18.9486 0H16.145Z" fill="black"/>
</g>
<path d="M51.096 26.288C49.464 26.288 48.048 25.928 46.848 25.208C45.664 24.472 44.752 23.456 44.112 22.16C43.472 20.848 43.152 19.328 43.152 17.6C43.152 15.872 43.472 14.36 44.112 13.064C44.752 11.752 45.664 10.736 46.848 10.016C48.048 9.28 49.464 8.912 51.096 8.912C53.016 8.912 54.576 9.368 55.776 10.28C56.976 11.192 57.744 12.48 58.08 14.144H55.848C55.592 13.104 55.072 12.272 54.288 11.648C53.504 11.008 52.44 10.688 51.096 10.688C49.896 10.688 48.856 10.968 47.976 11.528C47.096 12.072 46.416 12.864 45.936 13.904C45.456 14.928 45.216 16.16 45.216 17.6C45.216 19.04 45.456 20.28 45.936 21.32C46.416 22.344 47.096 23.136 47.976 23.696C48.856 24.24 49.896 24.512 51.096 24.512C52.44 24.512 53.504 24.208 54.288 23.6C55.072 22.976 55.592 22.152 55.848 21.128H58.08C57.744 22.744 56.976 24.008 55.776 24.92C54.576 25.832 53.016 26.288 51.096 26.288ZM66.2831 26.288C65.1631 26.288 64.1551 26.032 63.2591 25.52C62.3631 24.992 61.6591 24.256 61.1471 23.312C60.6351 22.352 60.3791 21.24 60.3791 19.976C60.3791 18.68 60.6351 17.56 61.1471 16.616C61.6751 15.656 62.3871 14.92 63.2831 14.408C64.1951 13.88 65.2111 13.616 66.3311 13.616C67.4831 13.616 68.4991 13.88 69.3791 14.408C70.2751 14.92 70.9791 15.656 71.4911 16.616C72.0191 17.56 72.2831 18.672 72.2831 19.952C72.2831 21.232 72.0191 22.352 71.4911 23.312C70.9631 24.256 70.2511 24.992 69.3551 25.52C68.4591 26.032 67.4351 26.288 66.2831 26.288ZM66.3071 24.56C66.9951 24.56 67.6351 24.392 68.2271 24.056C68.8191 23.704 69.2991 23.184 69.6671 22.496C70.0351 21.808 70.2191 20.96 70.2191 19.952C70.2191 18.928 70.0351 18.08 69.6671 17.408C69.3151 16.72 68.8431 16.208 68.2511 15.872C67.6751 15.52 67.0351 15.344 66.3311 15.344C65.6591 15.344 65.0191 15.52 64.4111 15.872C63.8191 16.208 63.3391 16.72 62.9711 17.408C62.6191 18.08 62.4431 18.928 62.4431 19.952C62.4431 20.96 62.6191 21.808 62.9711 22.496C63.3391 23.184 63.8111 23.704 64.3871 24.056C64.9791 24.392 65.6191 24.56 66.3071 24.56ZM79.5017 26.288C78.5737 26.288 77.7577 26.104 77.0537 25.736C76.3657 25.368 75.8297 24.8 75.4457 24.032C75.0777 23.264 74.8937 22.304 74.8937 21.152V13.904H76.9097V20.936C76.9097 22.136 77.1737 23.04 77.7017 23.648C78.2297 24.256 78.9737 24.56 79.9337 24.56C80.6057 24.56 81.2137 24.4 81.7577 24.08C82.3017 23.744 82.7257 23.272 83.0297 22.664C83.3497 22.04 83.5097 21.28 83.5097 20.384V13.904H85.5257V26H83.7017L83.5817 23.888C83.2137 24.64 82.6697 25.232 81.9497 25.664C81.2297 26.08 80.4137 26.288 79.5017 26.288ZM88.8675 26V13.904H90.6915L90.8355 16.208C91.1075 15.664 91.4515 15.2 91.8675 14.816C92.2995 14.432 92.8115 14.136 93.4035 13.928C94.0115 13.72 94.6995 13.616 95.4675 13.616V15.728H94.7235C94.2115 15.728 93.7235 15.8 93.2595 15.944C92.7955 16.072 92.3795 16.288 92.0115 16.592C91.6595 16.896 91.3795 17.312 91.1715 17.84C90.9795 18.352 90.8835 18.992 90.8835 19.76V26H88.8675ZM102.31 26.288C101.302 26.288 100.422 26.12 99.6703 25.784C98.9343 25.448 98.3423 24.984 97.8943 24.392C97.4623 23.784 97.1983 23.072 97.1023 22.256H99.1663C99.2463 22.672 99.4143 23.056 99.6703 23.408C99.9263 23.76 100.27 24.048 100.702 24.272C101.15 24.48 101.694 24.584 102.334 24.584C102.894 24.584 103.358 24.504 103.726 24.344C104.094 24.168 104.366 23.936 104.542 23.648C104.734 23.36 104.83 23.048 104.83 22.712C104.83 22.216 104.71 21.84 104.47 21.584C104.246 21.328 103.91 21.128 103.462 20.984C103.014 20.824 102.47 20.688 101.83 20.576C101.302 20.48 100.782 20.352 100.27 20.192C99.7583 20.032 99.3023 19.824 98.9023 19.568C98.5023 19.296 98.1823 18.968 97.9423 18.584C97.7183 18.2 97.6063 17.728 97.6063 17.168C97.6063 16.48 97.7823 15.872 98.1343 15.344C98.4863 14.8 98.9903 14.376 99.6463 14.072C100.318 13.768 101.094 13.616 101.974 13.616C103.27 13.616 104.318 13.928 105.118 14.552C105.918 15.176 106.39 16.08 106.534 17.264H104.542C104.462 16.656 104.198 16.184 103.75 15.848C103.318 15.496 102.718 15.32 101.95 15.32C101.198 15.32 100.622 15.472 100.222 15.776C99.8383 16.08 99.6463 16.48 99.6463 16.976C99.6463 17.296 99.7503 17.584 99.9583 17.84C100.182 18.08 100.502 18.288 100.918 18.464C101.35 18.64 101.878 18.784 102.502 18.896C103.302 19.04 104.03 19.232 104.686 19.472C105.342 19.712 105.87 20.072 106.27 20.552C106.686 21.016 106.894 21.68 106.894 22.544C106.894 23.296 106.702 23.952 106.318 24.512C105.95 25.072 105.422 25.512 104.734 25.832C104.046 26.136 103.238 26.288 102.31 26.288ZM115.197 26.288C114.077 26.288 113.069 26.032 112.173 25.52C111.277 24.992 110.573 24.256 110.061 23.312C109.549 22.352 109.293 21.24 109.293 19.976C109.293 18.68 109.549 17.56 110.061 16.616C110.589 15.656 111.301 14.92 112.197 14.408C113.109 13.88 114.125 13.616 115.245 13.616C116.397 13.616 117.413 13.88 118.293 14.408C119.189 14.92 119.893 15.656 120.405 16.616C120.933 17.56 121.197 18.672 121.197 19.952C121.197 21.232 120.933 22.352 120.405 23.312C119.877 24.256 119.165 24.992 118.269 25.52C117.373 26.032 116.349 26.288 115.197 26.288ZM115.221 24.56C115.909 24.56 116.549 24.392 117.141 24.056C117.733 23.704 118.213 23.184 118.581 22.496C118.949 21.808 119.133 20.96 119.133 19.952C119.133 18.928 118.949 18.08 118.581 17.408C118.229 16.72 117.757 16.208 117.165 15.872C116.589 15.52 115.949 15.344 115.245 15.344C114.573 15.344 113.933 15.52 113.325 15.872C112.733 16.208 112.253 16.72 111.885 17.408C111.533 18.08 111.357 18.928 111.357 19.952C111.357 20.96 111.533 21.808 111.885 22.496C112.253 23.184 112.725 23.704 113.301 24.056C113.893 24.392 114.533 24.56 115.221 24.56ZM122.824 26L128.944 9.2H133.072L139.192 26H135.376L130.984 13.256L126.592 26H122.824ZM125.488 22.328L126.448 19.544H135.256L136.192 22.328H125.488ZM141.272 26V9.2H144.872V26H141.272Z" fill="black"/>
<defs>
<clipPath id="clip0_38_341">
<rect width="32" height="35" fill="white"/>
</clipPath>
</defs>
</svg>
